<svg viewBox="0 0 14 14" xmlns="http://www.w3.org/2000/svg"
	xmlns:xlink="http://www.w3.org/1999/xlink" width="14.000000" height="14.000000" fill="none">
	<rect id="icloud.and.arrow.down ðŸš«ï¸ï¸ -m" width="14.000000" height="14.000000" x="0.000000"
		y="0.000000" fill="rgb(255,255,255)" fill-opacity="0" />
	<path id="çŸ¢é‡ 22"
		d="M8.66504 9.27281L8.66504 10.2808L11.2657 10.2808C12.9753 10.2808 14 9.12255 14 7.60734C14 6.34255 13.3262 5.30322 12.2402 4.80856C12.2514 2.0161 10.4638 1.07902e-06 8.18617 1.07902e-06C6.67703 1.07902e-06 5.60222 0.907869 4.93396 2.00358C3.66982 1.62164 2.0716 2.72363 2.04375 4.48301C0.785202 4.70213 0 5.86049 0 7.33806C0 8.96596 1.08592 10.2808 2.91249 10.2808L5.38506 10.2808L5.38506 9.27281L2.90692 9.27281C1.58711 9.27281 0.896575 8.41503 0.896575 7.33806C0.896575 6.14221 1.5704 5.25314 2.75099 5.25314C2.82895 5.25314 2.8568 5.20305 2.8568 5.12166C2.8568 3.19944 4.08751 2.66726 5.23471 3.04292C5.30153 3.06797 5.34051 3.05545 5.37392 2.98658C5.91404 1.90339 6.74385 1.00805 8.18617 1.00805C10.0127 1.00805 11.2768 2.63595 11.3715 4.50179C11.3882 4.78352 11.3715 5.12166 11.3492 5.41591C11.3437 5.4973 11.3715 5.54738 11.4383 5.55991C12.4519 5.8104 13.1034 6.52411 13.1034 7.60734C13.1034 8.57155 12.4797 9.27281 11.2601 9.27281L8.66504 9.27281ZM7.02784 14C7.1392 14 7.22829 13.9499 7.34523 13.831L9.22751 11.8524C9.3166 11.7647 9.36115 11.6583 9.36115 11.5206C9.36115 11.2701 9.18296 11.0823 8.95467 11.0823C8.84887 11.0823 8.73743 11.1386 8.65391 11.2325L7.80746 12.1842L7.43439 12.6225L7.4678 11.6896L7.4678 6.31751C7.4678 6.05457 7.26727 5.82919 7.02784 5.82919C6.7884 5.82919 6.5823 6.05457 6.5823 6.31751L6.5823 11.6896L6.61572 12.6288L6.24264 12.1842L5.39619 11.2325C5.31267 11.1386 5.19567 11.0823 5.08987 11.0823C4.856 11.0823 4.68895 11.2701 4.68895 11.5206C4.68895 11.6583 4.72793 11.7647 4.82259 11.8524L6.70487 13.831C6.82181 13.9499 6.9109 14 7.02784 14Z"
		fill="rgb(255, 255, 255)" fill-rule="evenodd" />
</svg>