<svg viewBox="0 0 26 26" xmlns="http://www.w3.org/2000/svg" xmlns:xlink="http://www.w3.org/1999/xlink" width="26.000000" height="26.000000" fill="none" customFrame="#000000">
	<path id="􀖗" d="M13 23.8389C18.8975 23.8389 23.7744 18.9619 23.7744 13.0645C23.7744 7.15625 18.8975 2.29004 12.9893 2.29004C7.0918 2.29004 2.22559 7.15625 2.22559 13.0645C2.22559 18.9619 7.10254 23.8389 13 23.8389ZM13 22.4424C7.80078 22.4424 3.62207 18.2529 3.62207 13.0645C3.62207 7.86523 7.80078 3.67578 12.9893 3.67578C18.1885 3.67578 22.3779 7.86523 22.3887 13.0645C22.3887 18.2529 18.1992 22.4424 13 22.4424ZM12.9893 19.1123C13.2363 19.1123 13.4189 18.9404 13.4189 18.6826L13.4189 17.877C15.127 17.7373 16.3838 16.749 16.3838 15.2236C16.3838 13.8379 15.4707 13 13.6445 12.6455L13.4189 12.5918L13.4189 9.3584C14.332 9.47656 14.998 10.0137 15.1807 10.8086C15.2666 11.0879 15.4277 11.249 15.707 11.249C16.0078 11.249 16.2227 11.0449 16.2227 10.7334C16.2227 10.6367 16.2012 10.54 16.1797 10.4326C15.9111 9.30469 14.8154 8.48828 13.4189 8.35938L13.4189 7.61816C13.4189 7.36035 13.2363 7.18848 12.9893 7.18848C12.7422 7.18848 12.5703 7.36035 12.5703 7.61816L12.5703 8.35938C10.9697 8.50977 9.79883 9.51953 9.79883 10.916C9.79883 12.2051 10.6904 13 12.4521 13.4082L12.5703 13.4404L12.5703 16.8887C11.4746 16.7598 10.7656 16.1475 10.6152 15.2988C10.5293 14.998 10.3574 14.8477 10.0889 14.8477C9.78809 14.8477 9.58398 15.0625 9.58398 15.374C9.58398 15.4707 9.60547 15.5674 9.62695 15.6748C9.90625 16.9102 11.0771 17.7373 12.5703 17.8662L12.5703 18.6826C12.5703 18.9404 12.7422 19.1123 12.9893 19.1123ZM12.5703 12.377L12.4951 12.3555C11.3887 12.0547 10.8516 11.6035 10.8516 10.873C10.8516 10.0996 11.5498 9.49805 12.5703 9.3584L12.5703 12.377ZM13.4189 13.6553L13.6553 13.709C14.8477 14.0205 15.3203 14.4932 15.3203 15.2666C15.3203 16.1367 14.6328 16.7812 13.4189 16.8887L13.4189 13.6553Z" fill="rgb(151,151,151)" fill-rule="nonzero" />
</svg>
