<svg width="14.166626" height="15.362061" viewBox="0 0 14.1666 15.3621" fill="none" xmlns="http://www.w3.org/2000/svg" xmlns:xlink="http://www.w3.org/1999/xlink">
	<desc>
			Created with Pixso.
	</desc>
	<defs/>
	<path id="矢量 119" d="M12.75 3.41L12.75 1.7L1.41 1.7L1.41 13.65L12.75 13.65L12.75 11.94L7.08 11.94C6.89 11.94 6.71 11.85 6.58 11.69C6.44 11.53 6.37 11.32 6.37 11.09L6.37 4.26C6.37 4.04 6.44 3.82 6.58 3.66C6.71 3.5 6.89 3.41 7.08 3.41L12.75 3.41ZM0.7 0L13.45 0C13.64 0 13.82 0.08 13.95 0.24C14.09 0.41 14.16 0.62 14.16 0.85L14.16 14.5C14.16 14.73 14.09 14.95 13.95 15.11C13.82 15.27 13.64 15.36 13.45 15.36L0.7 15.36C0.52 15.36 0.34 15.27 0.2 15.11C0.07 14.95 0 14.73 0 14.5L0 0.85C0 0.62 0.07 0.41 0.2 0.24C0.34 0.08 0.52 0 0.7 0L0.7 0ZM7.79 5.12L7.79 10.24L12.75 10.24L12.75 5.12L7.79 5.12ZM9.2 6.82L11.33 6.82L11.33 8.53L9.2 8.53L9.2 6.82Z" fill="#FFFFFF" fill-opacity="1.000000" fill-rule="evenodd"/>
</svg>
