<svg viewBox="0 0 25 25" xmlns="http://www.w3.org/2000/svg" xmlns:xlink="http://www.w3.org/1999/xlink" width="25.000000" height="25.000000" fill="none">
	<rect id="ep:location" width="25.000000" height="25.000000" x="0.000000" y="0.000000" fill="rgb(255,255,255)" fill-opacity="0" />
	<path id="Vector" d="M19.5312 10.1562C19.5312 8.29145 18.7905 6.50302 17.4718 5.18441C16.1532 3.86579 14.3648 3.125 12.5 3.125C10.6352 3.125 8.84677 3.86579 7.52816 5.18441C6.20954 6.50302 5.46875 8.29145 5.46875 10.1562C5.46875 13.0406 7.77656 16.8 12.5 21.3031C17.2234 16.8 19.5312 13.0406 19.5312 10.1562ZM12.5 23.4375C6.77031 18.2297 3.90625 13.8016 3.90625 10.1562C3.90625 7.87705 4.81166 5.69119 6.4233 4.07955C8.03494 2.46791 10.2208 1.5625 12.5 1.5625C14.7792 1.5625 16.9651 2.46791 18.5767 4.07955C20.1883 5.69119 21.0938 7.87705 21.0938 10.1562C21.0938 13.8016 18.2297 18.2297 12.5 23.4375Z" fill="rgb(151,151,151)" fill-rule="nonzero" />
	<path id="Vector" d="M12.5 12.5C13.1216 12.5 13.7177 12.2531 14.1573 11.8135C14.5968 11.374 14.8438 10.7779 14.8438 10.1562C14.8438 9.53465 14.5968 8.93851 14.1573 8.49897C13.7177 8.05943 13.1216 7.8125 12.5 7.8125C11.8784 7.8125 11.2823 8.05943 10.8427 8.49897C10.4032 8.93851 10.1562 9.53465 10.1562 10.1562C10.1562 10.7779 10.4032 11.374 10.8427 11.8135C11.2823 12.2531 11.8784 12.5 12.5 12.5ZM12.5 14.0625C11.464 14.0625 10.4704 13.6509 9.73786 12.9184C9.0053 12.1858 8.59375 11.1923 8.59375 10.1562C8.59375 9.12025 9.0053 8.12668 9.73786 7.39411C10.4704 6.66155 11.464 6.25 12.5 6.25C13.536 6.25 14.5296 6.66155 15.2621 7.39411C15.9947 8.12668 16.4062 9.12025 16.4062 10.1562C16.4062 11.1923 15.9947 12.1858 15.2621 12.9184C14.5296 13.6509 13.536 14.0625 12.5 14.0625Z" fill="rgb(151,151,151)" fill-rule="nonzero" />
</svg>
