<svg viewBox="0 0 24 24" xmlns="http://www.w3.org/2000/svg" xmlns:xlink="http://www.w3.org/1999/xlink" width="24.000000" height="24.000000" fill="none" customFrame="#000000">
	<path id="Shape" d="M10.5 21L3 21L3 3L10.5 3C11.325 3 12 2.325 12 1.5C12 0.675 11.325 0 10.5 0L1.5 0C0.675 0 0 0.675 0 1.5L0 22.5C0 23.325 0.675 24 1.5 24L10.5 24C11.325 24 12 23.325 12 22.5C12 21.675 11.325 21 10.5 21ZM19.065 6.435L23.565 10.935C23.835 11.205 24 11.58 24 12C24 12.42 23.835 12.795 23.565 13.065L19.065 17.565C18.795 17.835 18.42 18 18 18C17.175 18 16.5 17.325 16.5 16.5C16.5 16.08 16.665 15.705 16.95 15.435L18.885 13.5L9 13.5C8.175 13.5 7.5 12.825 7.5 12C7.5 11.175 8.175 10.5 9 10.5L18.885 10.5L16.935 8.565C16.665 8.295 16.5 7.92 16.5 7.5C16.5 6.675 17.175 6 18 6C18.42 6 18.795 6.165 19.065 6.435Z" fill="rgb(255,0,0)" fill-rule="evenodd" />
</svg>
