<svg width="16.000000" height="16.000000" viewBox="0 0 16 16" fill="none" xmlns="http://www.w3.org/2000/svg" xmlns:xlink="http://www.w3.org/1999/xlink">
	<desc>
			Created with Pixso.
	</desc>
	<defs/>
	<path id="Shape" d="M14.5789 0.931763C15.0964 0.931763 15.52 1.35529 15.52 1.87294C15.52 2.13647 15.4165 2.37177 15.2471 2.54117L12.1411 5.63765L13.6377 5.63765C14.1553 5.63765 14.5789 6.06117 14.5789 6.57883C14.5789 7.09647 14.1553 7.52 13.6377 7.52L9.87292 7.52C9.35535 7.52 8.93176 7.09647 8.93176 6.57883L8.93176 2.81412C8.93176 2.29646 9.35535 1.87294 9.87292 1.87294C10.3906 1.87294 10.8141 2.29646 10.8141 2.81412L10.8141 4.30118L13.9105 1.2047C14.08 1.03529 14.3153 0.931763 14.5789 0.931763ZM2.34351 9.40234L6.10828 9.40234C6.62585 9.40234 7.04944 9.82588 7.05884 10.3529L7.05884 14.1176C7.05884 14.6353 6.63525 15.0588 6.11768 15.0588C5.59998 15.0588 5.17651 14.6353 5.17651 14.1176L5.17651 12.6212L2.07996 15.7177C1.91052 15.8871 1.67529 15.9906 1.41174 15.9906C0.894165 15.9906 0.470581 15.5671 0.470581 15.0494C0.470581 14.7859 0.574097 14.5506 0.74353 14.3812L3.83997 11.2847L2.34351 11.2847C1.82593 11.2847 1.40234 10.8612 1.40234 10.3435C1.40234 9.82588 1.82593 9.40234 2.34351 9.40234Z" clip-rule="evenodd" fill="#FFFFFF" fill-opacity="1.000000" fill-rule="evenodd"/>
</svg>
