<svg width="16.000000" height="16.000000" viewBox="0 0 16 16" fill="none" xmlns="http://www.w3.org/2000/svg" xmlns:xlink="http://www.w3.org/1999/xlink">
	<desc>
			Created with Pixso.
	</desc>
	<defs/>
	<path id="Shape" d="M12 7L13.96 7C14.51 7 15 7.35 15 7.9L15 14.81C15 15.35 14.51 16 13.96 16L1.95996 16C1.41003 16 1 15.35 1 14.81L1 7.9C1 7.35 1.41003 7 1.95996 7L4 7L4 3.95C4 1.77 5.79004 0 8 0C10.21 0 12 1.77 12 3.95L12 7ZM6 3.95L6 7L10 7L10 3.95C10 2.86 9.09998 1.98 8 1.98C6.90002 1.98 6 2.86 6 3.95Z" clip-rule="evenodd" fill="#21262C" fill-opacity="1.000000" fill-rule="evenodd"/>
</svg>
