<svg viewBox="0 0 18.5088 19.6152" xmlns="http://www.w3.org/2000/svg" xmlns:xlink="http://www.w3.org/1999/xlink" width="18.508789" height="19.615234" fill="none" customFrame="#000000">
	<g id="Сочетание 31">
		<path id="􀉩" d="M9.27051 9.76465C11.7734 9.76465 13.7822 7.5625 13.7822 4.82324C13.7822 2.14844 11.7627 0 9.27051 0C6.78906 0 4.74805 2.16992 4.75879 4.83398C4.76953 7.57324 6.76758 9.76465 9.27051 9.76465ZM9.27051 8.50781C7.51953 8.50781 6.09082 6.90723 6.09082 4.83398C6.06934 2.84668 7.51953 1.26758 9.27051 1.26758C11.0215 1.26758 12.4502 2.8252 12.4502 4.82324C12.4502 6.88574 11.0322 8.50781 9.27051 8.50781ZM2.32031 19.6152L16.1885 19.6152C17.7676 19.6152 18.5088 19.1104 18.5088 18.0254C18.5088 15.2217 14.9854 11.2363 9.25977 11.2363C3.52344 11.2363 0 15.2217 0 18.0254C0 19.1104 0.751953 19.6152 2.32031 19.6152ZM1.9873 18.3477C1.49316 18.3477 1.33203 18.2295 1.33203 17.8857C1.33203 15.8555 4.2002 12.4932 9.25977 12.4932C14.3086 12.4932 17.1875 15.8555 17.1875 17.8857C17.1875 18.2295 17.0156 18.3477 16.5322 18.3477L1.9873 18.3477Z" fill="rgb(42,63,95)" fill-rule="nonzero" />
		<circle id="Ellipse 483" cx="9.50878906" cy="4.5859375" r="4" fill="rgb(42,63,95)" />
		<path id="Vector 458" d="M10.5088 12.0859C10.1755 12.0859 9.40879 12.0859 9.00879 12.0859C8.64926 12.0859 6.10847 12.6245 4.50879 12.9756L4.00879 13.5859C3.84212 13.5859 3.40879 13.6859 3.00879 14.0859C2.50879 14.5859 3.00879 14.5859 2.50879 15.0859C2.00879 15.5859 2.50879 15.0859 2.00879 15.5859C1.50879 16.0859 1.50879 16.0859 1.50879 17.0859C1.50879 17.8859 1.50879 17.7526 1.50879 17.5859L1.50879 18.0859C2.00879 18.0859 3.10879 18.0859 3.50879 18.0859C4.00879 18.0859 5.50879 18.0859 7.00879 18.0859C8.50879 18.0859 9.50879 18.0859 10.0088 18.0859C10.5088 18.0859 14.0088 18.0859 14.5088 18.0859C15.0088 18.0859 16.0088 18.0859 17.0088 18.0859C18.0088 18.0859 15.5088 17.5859 17.5088 17.0859C17.9939 16.9647 17.0088 16.0859 17.0088 15.5859C17.0088 15.0859 16.0088 16.0859 16.0088 15.5859C16.0088 15.1859 15.6755 14.2526 15.5088 14.0859C14.8421 13.9193 13.9088 12.9859 13.5088 12.5859C13.1088 12.1859 11.3421 12.0859 10.5088 12.0859Z" fill="rgb(42,63,95)" fill-rule="evenodd" />
		<path id="Vector 458" d="M4.00879 13.0859C4.16056 13.0522 4.32871 13.0151 4.50879 12.9756C6.10847 12.6245 8.64926 12.0859 9.00879 12.0859C9.40879 12.0859 10.1755 12.0859 10.5088 12.0859C11.3421 12.0859 13.1088 12.1859 13.5088 12.5859C13.9088 12.9859 14.8421 13.9193 15.5088 14.0859C15.6755 14.2526 16.0088 15.1859 16.0088 15.5859C16.0088 16.0859 17.0088 15.0859 17.0088 15.5859C17.0088 16.0859 17.9939 16.9647 17.5088 17.0859C15.5088 17.5859 18.0088 18.0859 17.0088 18.0859C16.0088 18.0859 15.0088 18.0859 14.5088 18.0859C14.0088 18.0859 10.5088 18.0859 10.0088 18.0859C9.50879 18.0859 8.50879 18.0859 7.00879 18.0859C5.50879 18.0859 4.00879 18.0859 3.50879 18.0859C3.10879 18.0859 2.00879 18.0859 1.50879 18.0859L1.50879 17.5859C1.50879 17.7526 1.50879 17.8859 1.50879 17.0859C1.50879 16.0859 1.50879 16.0859 2.00879 15.5859C2.50879 15.0859 2.00879 15.5859 2.50879 15.0859C3.00879 14.5859 2.50879 14.5859 3.00879 14.0859C3.40879 13.6859 3.84212 13.5859 4.00879 13.5859L4.50879 12.9756" fill-rule="evenodd" stroke="rgb(42,63,95)" stroke-width="1" />
	</g>
</svg>
