<svg viewBox="0 0 17 17" xmlns="http://www.w3.org/2000/svg" xmlns:xlink="http://www.w3.org/1999/xlink" width="17.000000" height="17.000000" fill="none" customFrame="#000000">
	<path id="Shape" d="M17 8.5C17 13.1944 13.1944 17 8.5 17C3.80558 17 0 13.1944 0 8.5C0 3.80558 3.80558 0 8.5 0C13.1944 0 17 3.80558 17 8.5ZM15.5833 8.5C15.5833 12.412 12.412 15.5833 8.5 15.5833C4.58798 15.5833 1.41667 12.412 1.41667 8.5C1.41667 4.58798 4.58798 1.41667 8.5 1.41667C12.412 1.41667 15.5833 4.58798 15.5833 8.5ZM12.5795 6.48182C12.8341 6.1848 12.7997 5.73763 12.5026 5.48304C12.2056 5.22845 11.7585 5.26285 11.5039 5.55987L7.75166 9.93744L5.81337 7.99915C5.53675 7.72252 5.08825 7.72252 4.81163 7.99915C4.53501 8.27577 4.53501 8.72426 4.81163 9.00088L7.2908 11.48C7.43031 11.6196 7.62169 11.6946 7.81885 11.687C8.01601 11.6794 8.20107 11.59 8.32947 11.4402L12.5795 6.48182Z" fill="rgb(0,33,78)" fill-rule="evenodd" />
</svg>
