<svg width="16.000000" height="16.000000" viewBox="0 0 16 16" fill="none" xmlns="http://www.w3.org/2000/svg" xmlns:xlink="http://www.w3.org/1999/xlink">
	<desc>
			Created with Pixso.
	</desc>
	<defs/>
	<path id="Shape" d="M5 2C5 2.5 4.59998 3 4 3C3.40002 3 3 2.5 3 2L3 1C3 0.400002 3.40002 0 4 0C4.59998 0 5 0.400002 5 1L5 2ZM11 3C11.6 3 12 2.5 12 2L12 1C12 0.400002 11.6 0 11 0C10.4 0 10 0.400002 10 1L10 2C10 2.5 10.4 3 11 3ZM14 1L13 1L13 2C13 3.1 12.1 4 11 4C9.90002 4 9 3.1 9 2L9 1L6 1L6 2C6 3.1 5.09998 4 4 4C2.90002 4 2 3.1 2 2L2 1L1 1C0.400024 1 0 1.5 0 2L0 14C0 14.6 0.400024 15 1 15L14 15C14.6 15 15 14.6 15 14L15 2C15 1.4 14.5 1 14 1ZM5 9L2 9L2 6L5 6L5 9ZM9 9L6 9L6 6L9 6L9 9ZM13 9L10 9L10 6L13 6L13 9ZM2 13L5 13L5 10L2 10L2 13ZM6 13L9 13L9 10L6 10L6 13ZM10 13L13 13L13 10L10 10L10 13Z" clip-rule="evenodd" fill="#324665" fill-opacity="1.000000" fill-rule="evenodd"/>
</svg>
