<svg width="16.000000" height="16.000000" viewBox="0 0 16 16" fill="none" xmlns="http://www.w3.org/2000/svg" xmlns:xlink="http://www.w3.org/1999/xlink">
	<desc>
			Created with Pixso.
	</desc>
	<defs>
		<clipPath id="clip30_59">
			<rect id="Предварительный просмотр - закрыть" width="16.000000" height="16.000000" fill="white" fill-opacity="0"/>
		</clipPath>
	</defs>
	<g clip-path="url(#clip30_59)">
		<path id="path" d="M2.96 5.64L2.96 5.61C3.18 5.43 3.49 5.46 3.67 5.68C3.84 5.89 3.82 6.2 3.6 6.38L3.57 6.38L2.96 5.64ZM9.19 11.36L9.21 11.34C9.48 11.27 9.75 11.43 9.81 11.7C9.88 11.98 9.72 12.24 9.45 12.31L9.43 12.3L9.19 11.36ZM6.81 4.62L6.79 4.65C6.52 4.71 6.25 4.55 6.19 4.28C6.12 4.01 6.28 3.74 6.55 3.68L6.58 3.69L6.81 4.62ZM13.03 10.35L13.03 10.38C12.81 10.56 12.5 10.53 12.32 10.31C12.15 10.1 12.17 9.79 12.39 9.61L12.42 9.61L13.03 10.35Z" fill="#000000" fill-opacity="0" fill-rule="nonzero"/>
		<path id="path" d="M3.28 6C2.07 7 1.33 8 1.33 8C1.33 8 4.31 12 8 12C8.45 12 8.9 11.93 9.33 11.83M6.67 4.16C7.1 4.06 7.54 4 8 4C11.68 4 14.66 8 14.66 8C14.66 8 13.92 9 12.71 10" stroke="#808080" stroke-opacity="1.000000" stroke-width="1.000000" stroke-linejoin="round" stroke-linecap="round"/>
		<path id="path" d="M6.4 6.56L6.4 6.53C6.59 6.32 6.9 6.31 7.1 6.5C7.31 6.69 7.32 7 7.13 7.21L7.11 7.21L6.4 6.56ZM8.81 8.86L8.81 8.83C9.01 8.63 9.32 8.64 9.52 8.84C9.71 9.04 9.71 9.35 9.51 9.54L9.48 9.54L8.81 8.86Z" fill="#000000" fill-opacity="0" fill-rule="nonzero"/>
		<path id="path" d="M6.77 6.87C6.49 7.17 6.33 7.56 6.33 7.99C6.33 8.92 7.07 9.66 8 9.66C8.45 9.66 8.86 9.48 9.16 9.19" stroke="#808080" stroke-opacity="1.000000" stroke-width="1.000000" stroke-linejoin="round" stroke-linecap="round"/>
		<path id="path" d="M1.67 2.35L1.64 2.35C1.44 2.15 1.44 1.84 1.64 1.64C1.84 1.44 2.15 1.44 2.35 1.64L2.35 1.67L1.67 2.35ZM14.32 13.64L14.35 13.64C14.55 13.84 14.55 14.15 14.35 14.35C14.15 14.55 13.84 14.55 13.64 14.35L13.64 14.32L14.32 13.64Z" fill="#000000" fill-opacity="0" fill-rule="nonzero"/>
		<path id="path" d="M2 2L14 14" stroke="#808080" stroke-opacity="1.000000" stroke-width="1.000000" stroke-linejoin="round" stroke-linecap="round"/>
	</g>
</svg>
