<svg width="10.000000" height="10.000000" viewBox="0 0 10 10" fill="none" xmlns="http://www.w3.org/2000/svg" xmlns:xlink="http://www.w3.org/1999/xlink">
	<desc>
			Created with Pixso.
	</desc>
	<defs/>
	<path id="Shape" d="M6.4 5L9.7 1.7C9.89 1.53 10 1.28 10 1C10 0.45 9.54 0 9 0C8.71 0 8.46 0.1 8.28 0.29L5 3.59L1.71 0.29C1.53 0.1 1.28 0 1 0C0.45 0 0 0.45 0 1C0 1.28 0.1 1.53 0.28 1.7L3.59 5L0.29 8.29C0.1 8.47 0 8.72 0 9C0 9.54 0.45 10 1 10C1.28 10 1.53 9.89 1.71 9.7L5 6.41L8.28 9.7C8.46 9.89 8.71 10 9 10C9.54 10 10 9.54 10 9C10 8.72 9.89 8.47 9.71 8.29L6.4 5Z" fill="#FF7F50" fill-opacity="1.000000" fill-rule="evenodd"/>
</svg>
