<svg viewBox="0 0 26 26" xmlns="http://www.w3.org/2000/svg" xmlns:xlink="http://www.w3.org/1999/xlink" width="26.000000" height="26.000000" fill="none" customFrame="#000000">
	<path id="􀎟" d="M15.7178 22.0557L10.2607 22.0557L10.2607 14.7939C10.2607 14.5719 10.3288 14.3965 10.4648 14.2676C10.6081 14.1315 10.7907 14.0635 11.0127 14.0635L14.9873 14.0635C15.2093 14.0635 15.3848 14.1315 15.5137 14.2676C15.6497 14.3965 15.7178 14.5719 15.7178 14.7939L15.7178 22.0557ZM3.68652 21.1963C3.68652 21.8838 3.87988 22.4173 4.2666 22.7969C4.66048 23.1764 5.20475 23.3662 5.89941 23.3662L20.1221 23.3662C20.8167 23.3662 21.3574 23.1764 21.7441 22.7969C22.1309 22.4173 22.3242 21.8838 22.3242 21.1963L22.3242 11.9795L13.666 4.71777C13.222 4.34538 12.778 4.34538 12.334 4.71777L3.68652 11.9795L3.68652 21.1963ZM0.614258 11.4424C0.614258 11.6071 0.67513 11.7575 0.796875 11.8936C0.925781 12.0225 1.09766 12.0869 1.3125 12.0869C1.42708 12.0869 1.53092 12.0618 1.62402 12.0117C1.71712 11.9544 1.80664 11.8936 1.89258 11.8291L12.5918 2.85938C12.7207 2.73763 12.8568 2.67676 13 2.67676C13.1432 2.6696 13.2865 2.73047 13.4297 2.85938L24.1182 11.8291C24.1969 11.8936 24.2829 11.9544 24.376 12.0117C24.4691 12.0618 24.5729 12.0869 24.6875 12.0869C24.8737 12.0869 25.0348 12.0332 25.1709 11.9258C25.307 11.8112 25.375 11.6572 25.375 11.4639C25.375 11.2275 25.2855 11.0342 25.1064 10.8838L14.1602 1.67773C13.8021 1.37695 13.4189 1.22656 13.0107 1.22656C12.6025 1.22656 12.2194 1.37695 11.8613 1.67773L0.893555 10.8838C0.707357 11.0342 0.614258 11.2204 0.614258 11.4424ZM20.0361 7.17773L22.3242 9.11133L22.3242 4.16992C22.3242 3.97656 22.2633 3.82259 22.1416 3.70801C22.027 3.59343 21.8766 3.53613 21.6904 3.53613L20.6807 3.53613C20.4945 3.53613 20.3405 3.59343 20.2188 3.70801C20.097 3.82259 20.0361 3.97656 20.0361 4.16992L20.0361 7.17773Z" fill="rgb(42,63,95)" fill-rule="nonzero" />
</svg>
