<svg width="16.000000" height="16.000000" viewBox="0 0 16 16" fill="none" xmlns="http://www.w3.org/2000/svg" xmlns:xlink="http://www.w3.org/1999/xlink">
	<desc>
			Created with Pixso.
	</desc>
	<defs/>
	<path id="Shape" d="M11.2847 0.931763L15.0494 0.931763C15.567 0.931763 15.9906 1.35529 15.9906 1.88235L15.9906 5.64706C15.9906 6.1647 15.567 6.58823 15.0494 6.58823C14.5317 6.58823 14.1083 6.1647 14.1083 5.64706L14.1083 4.15059L11.0117 7.24706C10.8424 7.41647 10.6071 7.52 10.3435 7.52C9.82593 7.52 9.40234 7.09647 9.40234 6.57883C9.40234 6.32471 9.50586 6.08942 9.67529 5.92L12.7811 2.81412L11.2847 2.81412C10.7671 2.81412 10.3435 2.39058 10.3435 1.87294C10.3435 1.35529 10.7671 0.931763 11.2847 0.931763ZM5.91064 9.67529C6.07996 9.50587 6.31531 9.40234 6.57886 9.40234C7.09644 9.40234 7.52002 9.82588 7.52002 10.3435C7.52002 10.6071 7.4165 10.8423 7.24707 11.0118L4.15063 14.0988L5.6377 14.0988C6.15527 14.0988 6.57886 14.5224 6.57886 15.04C6.57886 15.5576 6.15527 15.9812 5.6377 15.9812L1.87292 15.9812C1.35535 15.9812 0.931763 15.5576 0.931763 15.04L0.931763 11.2753C0.931763 10.7576 1.35535 10.3341 1.87292 10.3341C2.39062 10.3341 2.81409 10.7576 2.81409 11.2753L2.81409 12.7718L5.91064 9.67529Z" clip-rule="evenodd" fill="#FFFFFF" fill-opacity="1.000000" fill-rule="evenodd"/>
</svg>
