<svg viewBox="0 0 21.5 21.5" xmlns="http://www.w3.org/2000/svg" xmlns:xlink="http://www.w3.org/1999/xlink" width="21.500000" height="21.500000" fill="none" customFrame="#000000">
	<g id="Group">
		<path id="Vector" d="M2.6875 2.6875L5.375 2.6875L5.375 5.375L2.6875 5.375L2.6875 2.6875Z" fill="rgb(151,151,151)" fill-rule="nonzero" />
		<path id="Vector" d="M8.0625 0L8.0625 8.0625L0 8.0625L0 0L8.0625 0ZM6.71875 1.34375L1.34375 1.34375L1.34375 6.71875L6.71875 6.71875L6.71875 1.34375ZM5.375 16.125L2.6875 16.125L2.6875 18.8125L5.375 18.8125L5.375 16.125Z" fill="rgb(151,151,151)" fill-rule="nonzero" />
		<path id="Vector" d="M8.0625 13.4375L8.0625 21.5L0 21.5L0 13.4375L8.0625 13.4375ZM1.34375 14.7812L1.34375 20.1562L6.71875 20.1562L6.71875 14.7812L1.34375 14.7812ZM16.125 2.6875L18.8125 2.6875L18.8125 5.375L16.125 5.375L16.125 2.6875Z" fill="rgb(151,151,151)" fill-rule="nonzero" />
		<path id="Vector" d="M13.4375 0L13.4375 8.0625L21.5 8.0625L21.5 0L13.4375 0ZM20.1562 1.34375L20.1562 6.71875L14.7812 6.71875L14.7812 1.34375L20.1562 1.34375ZM10.75 1.34375L10.75 0L12.0938 0L12.0938 2.6875L10.75 2.6875L10.75 5.375L9.40625 5.375L9.40625 1.34375L10.75 1.34375ZM10.75 8.0625L10.75 5.375L12.0938 5.375L12.0938 8.0625L10.75 8.0625ZM8.0625 10.75L8.0625 9.40625L9.40625 9.40625L9.40625 8.0625L10.75 8.0625L10.75 10.75L12.0938 10.75L12.0938 9.40625L18.8125 9.40625L18.8125 10.75L13.4375 10.75L13.4375 12.0938L9.40625 12.0938L9.40625 10.75L8.0625 10.75ZM8.0625 10.75L8.0625 12.0938L2.6875 12.0938L2.6875 10.75L1.34375 10.75L1.34375 12.0938L0 12.0938L0 9.40625L4.03125 9.40625L4.03125 10.75L8.0625 10.75ZM21.5 12.0938L20.1562 12.0938L20.1562 9.40625L21.5 9.40625L21.5 12.0938ZM20.1562 12.0938L18.8125 12.0938L18.8125 14.7812L21.5 14.7812L21.5 13.4375L20.1562 13.4375L20.1562 12.0938ZM14.7812 12.0938L17.4688 12.0938L17.4688 13.4375L16.125 13.4375L16.125 14.7812L14.7812 14.7812L14.7812 12.0938ZM17.4688 16.125L17.4688 14.7812L16.125 14.7812L16.125 16.125L14.7812 16.125L14.7812 17.4688L12.0938 17.4688L12.0938 18.8125L16.125 18.8125L16.125 16.125L17.4688 16.125ZM17.4688 16.125L21.5 16.125L21.5 17.4688L18.8125 17.4688L18.8125 18.8125L17.4688 18.8125L17.4688 16.125ZM12.0938 14.7812L12.0938 16.125L13.4375 16.125L13.4375 13.4375L9.40625 13.4375L9.40625 14.7812L12.0938 14.7812Z" fill="rgb(151,151,151)" fill-rule="nonzero" />
		<path id="Vector" d="M9.40625 16.125L10.75 16.125L10.75 20.1562L16.125 20.1562L16.125 21.5L9.40625 21.5L9.40625 16.125ZM21.5 18.8125L21.5 21.5L17.4688 21.5L17.4688 20.1562L20.1562 20.1562L20.1562 18.8125L21.5 18.8125Z" fill="rgb(151,151,151)" fill-rule="nonzero" />
	</g>
</svg>
