<svg width="16.002686" height="16.003738" viewBox="0 0 16.0027 16.0037" fill="none" xmlns="http://www.w3.org/2000/svg" xmlns:xlink="http://www.w3.org/1999/xlink">
	<desc>
			Created with Pixso.
	</desc>
	<defs/>
	<path id="Shape" d="M15.9 12.41C15.84 12.35 12.53 10.41 12.42 10.36C12.31 10.31 12.2 10.28 12.1 10.28C11.95 10.28 11.76 10.39 11.53 10.6C11.3 10.82 10.59 11.79 10.38 12C10.17 12.22 10 12.32 9.86 12.32C9.79 12.32 9.71 12.3 9.61 12.26C9.51 12.22 8.45 11.68 6.25 9.74C4.05 7.81 3.76 6.54 3.75 6.19C3.75 6.05 3.86 5.88 4.07 5.67C4.29 5.46 4.52 5.26 4.77 5.07C5.02 4.88 5.26 4.67 5.47 4.45C5.69 4.22 5.79 4.03 5.79 3.88C5.79 3.77 5.76 3.67 5.71 3.56C5.66 3.46 3.66 0.15 3.59 0.08C3.44 -0.07 2.85 0 2.55 0.16C0.16 1.46 -0.03 3.2 0 3.89C0.04 4.6 0.49 8.35 4.16 11.84C8.72 16.17 11.89 16 12.1 16C12.79 16 14.92 15.62 15.82 13.45C15.95 13.13 16.07 12.58 15.9 12.41Z" fill="#21262C" fill-opacity="1.000000" fill-rule="evenodd"/>
</svg>
